HIERARCHY
ROOT newVegas:Hips
{
	OFFSET 0.000000 96.479958 0.000000
	CHANNELS 6 Xposition Yposition Zposition Xrotation Yrotation Zrotation
	JOINT newVegas:Pelvis
	{
		OFFSET 0.000000 0.000000 0.000000
		CHANNELS 3 Xrotation Yrotation Zrotation
		JOINT newVegas:LeftUpLeg
		{
			OFFSET 18.735201 -5.666702 -4.541200
			CHANNELS 3 Xrotation Yrotation Zrotation
			JOINT newVegas:LeftLeg
			{
				OFFSET -0.021200 -31.938179 0.493100
				CHANNELS 3 Xrotation Yrotation Zrotation
				JOINT newVegas:LeftFoot
				{
					OFFSET 0.021200 -31.938179 -4.336299
					CHANNELS 3 Xrotation Yrotation Zrotation
					JOINT newVegas:LeftToeBase
					{
						OFFSET 0.943001 -26.722000 15.023500
						CHANNELS 3 Xrotation Yrotation Zrotation
						End Site
						{
							OFFSET 0.000000 30.670183 0.000000
						}
					}
				}
				JOINT newVegas:Left_PantLeg
				{
					OFFSET 0.663870 -9.044666 -1.108900
					CHANNELS 3 Xrotation Yrotation Zrotation
					End Site
					{
						OFFSET 1.415995 20.635357 0.000000
					}
				}
			}
		}
		JOINT newVegas:RightUpLeg
		{
			OFFSET -18.735201 -5.666702 -4.541200
			CHANNELS 3 Xrotation Yrotation Zrotation
			JOINT newVegas:RightLeg
			{
				OFFSET 0.018946 -31.938133 0.493100
				CHANNELS 3 Xrotation Yrotation Zrotation
				JOINT newVegas:RightFoot
				{
					OFFSET -0.018946 -31.938126 -4.336299
					CHANNELS 3 Xrotation Yrotation Zrotation
					JOINT newVegas:RightToeBase
					{
						OFFSET -0.943001 -26.722004 15.023500
						CHANNELS 3 Xrotation Yrotation Zrotation
						End Site
						{
							OFFSET 0.000000 30.670187 0.000000
						}
					}
				}
				JOINT newVegas:Right_PantLeg
				{
					OFFSET -0.661674 -9.044716 -1.108900
					CHANNELS 3 Xrotation Yrotation Zrotation
					End Site
					{
						OFFSET -1.415958 20.635269 0.000000
					}
				}
			}
		}
	}
	JOINT newVegas:Spine
	{
		OFFSET 0.000000 10.199997 -0.299500
		CHANNELS 3 Xrotation Yrotation Zrotation
		JOINT newVegas:Spine1
		{
			OFFSET 0.000000 11.900002 -1.516600
			CHANNELS 3 Xrotation Yrotation Zrotation
			JOINT newVegas:Spine2
			{
				OFFSET 0.000000 13.600006 -2.842500
				CHANNELS 3 Xrotation Yrotation Zrotation
				JOINT newVegas:Neck
				{
					OFFSET 0.000000 9.624100 -2.890100
					CHANNELS 3 Xrotation Yrotation Zrotation
					JOINT newVegas:Head
					{
						OFFSET 0.000000 14.068802 -1.351900
						CHANNELS 3 Xrotation Yrotation Zrotation
						JOINT newVegas:Hair_Back
						{
							OFFSET 0.000000 3.231903 -17.524799
							CHANNELS 3 Xrotation Yrotation Zrotation
							End Site
							{
								OFFSET 0.000000 19.849884 0.000000
							}
						}
						JOINT newVegas:Hair_Front
						{
							OFFSET 0.000000 31.260406 4.573800
							CHANNELS 3 Xrotation Yrotation Zrotation
							JOINT newVegas:Hair_Front1
							{
								OFFSET 0.000000 2.284103 11.993300
								CHANNELS 3 Xrotation Yrotation Zrotation
								JOINT newVegas:Hair_Front2
								{
									OFFSET 0.000000 2.284103 11.993300
									CHANNELS 3 Xrotation Yrotation Zrotation
									End Site
									{
										OFFSET 0.000000 12.208862 0.000000
									}
								}
							}
						}
						JOINT newVegas:Jowel
						{
							OFFSET 0.000000 -7.458206 6.864100
							CHANNELS 3 Xrotation Yrotation Zrotation
							End Site
							{
								OFFSET 0.000000 19.849884 0.000000
							}
						}
					}
				}
				JOINT newVegas:LeftShoulder
				{
					OFFSET 15.263000 10.923401 -0.547700
					CHANNELS 3 Xrotation Yrotation Zrotation
					JOINT newVegas:LeftArm
					{
						OFFSET 25.438599 -2.830597 -13.032500
						CHANNELS 3 Xrotation Yrotation Zrotation
						JOINT newVegas:LeftForeArm
						{
							OFFSET 29.960503 0.000000 0.000000
							CHANNELS 3 Xrotation Yrotation Zrotation
							JOINT newVegas:LeftHand
							{
								OFFSET 27.849251 0.000000 0.000000
								CHANNELS 3 Xrotation Yrotation Zrotation
								JOINT newVegas:LeftHandThumb1
								{
									OFFSET 4.487587 -3.305161 6.305391
									CHANNELS 3 Xrotation Yrotation Zrotation
									JOINT newVegas:LeftHandThumb2
									{
										OFFSET 5.480453 -3.164139 3.164143
										CHANNELS 3 Xrotation Yrotation Zrotation
										JOINT newVegas:LeftHandThumb3
										{
											OFFSET 5.159721 -2.978973 2.978967
											CHANNELS 3 Xrotation Yrotation Zrotation
											End Site
											{
												OFFSET 2.494507 5.926697 1.738678
											}
										}
									}
								}
								JOINT newVegas:LeftHandIndex1
								{
									OFFSET 18.578728 -0.527832 5.208049
									CHANNELS 3 Xrotation Yrotation Zrotation
									JOINT newVegas:LeftHandIndex2
									{
										OFFSET 3.192009 0.000000 0.000000
										CHANNELS 3 Xrotation Yrotation Zrotation
										JOINT newVegas:LeftHandIndex3
										{
											OFFSET 3.835129 0.000000 0.000000
											CHANNELS 3 Xrotation Yrotation Zrotation
											End Site
											{
												OFFSET -0.034599 3.816971 0.371180
											}
										}
									}
								}
								JOINT newVegas:LeftHandMiddle1
								{
									OFFSET 18.476105 0.000000 0.000000
									CHANNELS 3 Xrotation Yrotation Zrotation
									JOINT newVegas:LeftHandMiddle2
									{
										OFFSET 3.324875 0.000000 0.000000
										CHANNELS 3 Xrotation Yrotation Zrotation
										JOINT newVegas:LeftHandMiddle3
										{
											OFFSET 4.596550 0.000000 0.000000
											CHANNELS 3 Xrotation Yrotation Zrotation
											End Site
											{
												OFFSET 0.057701 4.578827 0.399218
											}
										}
									}
								}
								JOINT newVegas:LeftHandRing1
								{
									OFFSET 17.732719 0.121887 -4.201567
									CHANNELS 3 Xrotation Yrotation Zrotation
									JOINT newVegas:LeftHandRing2
									{
										OFFSET 2.733170 0.000000 0.000000
										CHANNELS 3 Xrotation Yrotation Zrotation
										JOINT newVegas:LeftHandRing3
										{
											OFFSET 3.178268 0.000000 0.000000
											CHANNELS 3 Xrotation Yrotation Zrotation
											End Site
											{
												OFFSET 0.119102 3.170624 0.185394
											}
										}
									}
								}
								JOINT newVegas:LeftHandPinky1
								{
									OFFSET 15.989624 -0.606689 -7.535461
									CHANNELS 3 Xrotation Yrotation Zrotation
									JOINT newVegas:LeftHandPinky2
									{
										OFFSET 2.538986 0.000000 0.000000
										CHANNELS 3 Xrotation Yrotation Zrotation
										JOINT newVegas:LeftHandPinky3
										{
											OFFSET 2.593102 0.000000 0.000000
											CHANNELS 3 Xrotation Yrotation Zrotation
											End Site
											{
												OFFSET -0.150902 2.584198 0.152708
											}
										}
									}
								}
							}
							JOINT newVegas:Left_Sleeve
							{
								OFFSET 0.267448 -0.649796 0.577675
								CHANNELS 3 Xrotation Yrotation Zrotation
								End Site
								{
									OFFSET 0.000000 15.991241 0.000000
								}
							}
							JOINT newVegas:Left_CapeC
							{
								OFFSET 15.715958 -8.608795 -6.935905
								CHANNELS 3 Xrotation Yrotation Zrotation
								JOINT newVegas:Left_CapeC1
								{
									OFFSET 0.000000 -8.688499 0.000000
									CHANNELS 3 Xrotation Yrotation Zrotation
									End Site
									{
										OFFSET 0.000000 8.688499 0.000000
									}
								}
							}
						}
						JOINT newVegas:Left_CapeB
						{
							OFFSET 26.118385 -8.608795 -7.079235
							CHANNELS 3 Xrotation Yrotation Zrotation
							JOINT newVegas:Left_CapeB1
							{
								OFFSET 0.000000 -8.688499 0.000000
								CHANNELS 3 Xrotation Yrotation Zrotation
								End Site
								{
									OFFSET 0.000000 8.688499 0.000000
								}
							}
						}
						JOINT newVegas:Left_CapeA
						{
							OFFSET 5.115639 -8.608795 -10.395809
							CHANNELS 3 Xrotation Yrotation Zrotation
							JOINT newVegas:Left_CapeA1
							{
								OFFSET 0.000000 -8.688499 0.000000
								CHANNELS 3 Xrotation Yrotation Zrotation
								End Site
								{
									OFFSET 0.000000 8.688499 0.000000
								}
							}
						}
					}
				}
				JOINT newVegas:RightShoulder
				{
					OFFSET -15.263000 10.923401 -0.547700
					CHANNELS 3 Xrotation Yrotation Zrotation
					JOINT newVegas:RightArm
					{
						OFFSET -25.438599 -2.830597 -13.032500
						CHANNELS 3 Xrotation Yrotation Zrotation
						JOINT newVegas:RightForeArm
						{
							OFFSET -29.960503 0.000000 0.000000
							CHANNELS 3 Xrotation Yrotation Zrotation
							JOINT newVegas:RightHand
							{
								OFFSET -27.849251 0.000000 0.000000
								CHANNELS 3 Xrotation Yrotation Zrotation
								JOINT newVegas:RightHandThumb1
								{
									OFFSET -4.487587 -3.305161 6.305391
									CHANNELS 3 Xrotation Yrotation Zrotation
									JOINT newVegas:RightHandThumb2
									{
										OFFSET -5.480453 -3.164139 3.164143
										CHANNELS 3 Xrotation Yrotation Zrotation
										JOINT newVegas:RightHandThumb3
										{
											OFFSET -5.159721 -2.978973 2.978967
											CHANNELS 3 Xrotation Yrotation Zrotation
											End Site
											{
												OFFSET -2.494507 5.926697 1.738678
											}
										}
									}
								}
								JOINT newVegas:RightHandIndex1
								{
									OFFSET -18.578728 -0.527832 5.208049
									CHANNELS 3 Xrotation Yrotation Zrotation
									JOINT newVegas:RightHandIndex2
									{
										OFFSET -3.192009 0.000000 0.000000
										CHANNELS 3 Xrotation Yrotation Zrotation
										JOINT newVegas:RightHandIndex3
										{
											OFFSET -3.835129 0.000000 0.000000
											CHANNELS 3 Xrotation Yrotation Zrotation
											End Site
											{
												OFFSET 0.034599 3.816971 0.371180
											}
										}
									}
								}
								JOINT newVegas:RightHandMiddle1
								{
									OFFSET -18.476105 0.000000 0.000000
									CHANNELS 3 Xrotation Yrotation Zrotation
									JOINT newVegas:RightHandMiddle2
									{
										OFFSET -3.324875 0.000000 0.000000
										CHANNELS 3 Xrotation Yrotation Zrotation
										JOINT newVegas:RightHandMiddle3
										{
											OFFSET -4.596550 0.000000 0.000000
											CHANNELS 3 Xrotation Yrotation Zrotation
											End Site
											{
												OFFSET -0.057701 4.578827 0.399218
											}
										}
									}
								}
								JOINT newVegas:RightHandRing1
								{
									OFFSET -17.732719 0.121887 -4.201567
									CHANNELS 3 Xrotation Yrotation Zrotation
									JOINT newVegas:RightHandRing2
									{
										OFFSET -2.733170 0.000000 0.000000
										CHANNELS 3 Xrotation Yrotation Zrotation
										JOINT newVegas:RightHandRing3
										{
											OFFSET -3.178268 0.000000 0.000000
											CHANNELS 3 Xrotation Yrotation Zrotation
											End Site
											{
												OFFSET -0.119102 3.170624 0.185394
											}
										}
									}
								}
								JOINT newVegas:RightHandPinky1
								{
									OFFSET -15.989624 -0.606689 -7.535461
									CHANNELS 3 Xrotation Yrotation Zrotation
									JOINT newVegas:RightHandPinky2
									{
										OFFSET -2.538986 0.000000 0.000000
										CHANNELS 3 Xrotation Yrotation Zrotation
										JOINT newVegas:RightHandPinky3
										{
											OFFSET -2.593102 0.000000 0.000000
											CHANNELS 3 Xrotation Yrotation Zrotation
											End Site
											{
												OFFSET 0.150902 2.584198 0.152708
											}
										}
									}
								}
							}
							JOINT newVegas:Right_CapeC
							{
								OFFSET -15.715958 -8.608795 -6.935905
								CHANNELS 3 Xrotation Yrotation Zrotation
								JOINT newVegas:Right_CapeC1
								{
									OFFSET 0.000000 -8.688499 0.000000
									CHANNELS 3 Xrotation Yrotation Zrotation
									End Site
									{
										OFFSET 0.000000 8.688499 0.000000
									}
								}
							}
							JOINT newVegas:Right_Sleeve
							{
								OFFSET -0.267448 -0.649994 0.577675
								CHANNELS 3 Xrotation Yrotation Zrotation
								End Site
								{
									OFFSET 0.000000 15.991302 0.000000
								}
							}
						}
						JOINT newVegas:Right_CapeA
						{
							OFFSET -5.115540 -8.608795 -10.395824
							CHANNELS 3 Xrotation Yrotation Zrotation
							JOINT newVegas:Right_CapeA1
							{
								OFFSET 0.000000 -8.688499 0.000000
								CHANNELS 3 Xrotation Yrotation Zrotation
								End Site
								{
									OFFSET 0.000000 8.688499 0.000000
								}
							}
						}
						JOINT newVegas:Right_CapeB
						{
							OFFSET -26.118187 -8.608795 -7.079266
							CHANNELS 3 Xrotation Yrotation Zrotation
							JOINT newVegas:Right_CapeB1
							{
								OFFSET 0.000000 -8.688499 0.000000
								CHANNELS 3 Xrotation Yrotation Zrotation
								End Site
								{
									OFFSET 0.000000 8.688499 0.000000
								}
							}
						}
					}
				}
				JOINT newVegas:Left_Collar
				{
					OFFSET 18.625099 8.655502 8.828100
					CHANNELS 3 Xrotation Yrotation Zrotation
					JOINT newVegas:Left_Collar1
					{
						OFFSET 14.783401 10.540405 -1.259500
						CHANNELS 3 Xrotation Yrotation Zrotation
						End Site
						{
							OFFSET 0.000000 18.199875 0.000000
						}
					}
				}
				JOINT newVegas:Collar_Back
				{
					OFFSET 0.000000 15.630707 -20.132601
					CHANNELS 3 Xrotation Yrotation Zrotation
					End Site
					{
						OFFSET 0.000000 22.523010 0.000000
					}
				}
				JOINT newVegas:Left_Peck
				{
					OFFSET 17.239599 -5.132599 25.482599
					CHANNELS 3 Xrotation Yrotation Zrotation
					End Site
					{
						OFFSET 0.000000 22.523010 0.000000
					}
				}
				JOINT newVegas:Right_Peck
				{
					OFFSET -17.239599 -5.132202 25.482599
					CHANNELS 3 Xrotation Yrotation Zrotation
					End Site
					{
						OFFSET 0.000000 22.523010 0.000000
					}
				}
				JOINT newVegas:Right_Collar
				{
					OFFSET -18.625099 8.655792 8.828100
					CHANNELS 3 Xrotation Yrotation Zrotation
					JOINT newVegas:Right_Collar1
					{
						OFFSET -14.783401 10.539993 -1.259500
						CHANNELS 3 Xrotation Yrotation Zrotation
						End Site
						{
							OFFSET 0.000000 18.199631 0.000000
						}
					}
				}
			}
		}
		JOINT newVegas:Belly
		{
			OFFSET 0.000000 -6.540398 9.014299
			CHANNELS 3 Xrotation Yrotation Zrotation
			End Site
			{
				OFFSET 0.000000 11.566666 0.000000
			}
		}
	}
	JOINT newVegas:ElvisFacialAnim_Joint
	{
		OFFSET 1.000000 -95.330101 -8.825800
		CHANNELS 3 Xrotation Yrotation Zrotation
		End Site
		{
			OFFSET 0.000000 35.315800 0.000000
		}
	}
}
MOTION
Frames: 4
Frame Time: 0.016667
-3.960222 93.769394 -3.496696 -9.386994 -0.881953 3.155035 -0.000000 0.000000 -0.000000 -6.932207 8.693858 -4.141255 24.080225 -0.260244 -0.245899 -8.503273 3.770672 3.524062 0.000000 -0.000000 -0.000000 0.000001 0.000000 0.000001 -12.378457 -13.443516 -17.038757 34.229845 1.137479 0.425620 -11.934735 -14.945538 5.404333 -0.000000 -0.000002 -0.000000 0.000000 -0.000001 0.000000 7.155576 1.522476 -4.137263 14.244013 3.269501 -3.077380 14.269168 3.169304 -3.056462 6.878159 0.379432 -0.877896 6.878172 0.379433 -0.877893 0.000002 0.000000 -0.000000 6.878115 0.379432 -0.877897 6.878265 0.379441 -0.877896 0.000001 0.000000 -0.000002 0.000002 0.000000 -0.000000 -1.697382 -21.196982 -25.775450 -1.040214 -44.501777 -31.977921 4.422147 -24.531587 1.305874 -9.189762 -9.383425 -4.673677 -20.843953 2.778267 -4.205199 -15.861909 33.847808 10.250614 0.000002 0.000000 -0.000001 -3.032256 19.342223 -21.628887 6.299690 9.746920 -60.829030 -0.000000 -0.000000 0.000001 -13.487426 18.095003 -22.029652 6.757705 12.670219 -69.483699 0.000000 0.000002 -0.000000 -15.276621 16.701592 -37.493374 3.110978 12.310334 -81.609525 0.000002 0.000001 0.000002 -30.922643 24.752759 -41.175000 6.897604 7.241742 -89.331395 0.000002 -0.000003 -0.000001 -0.000002 0.000003 -0.000002 -0.000002 0.000003 -0.000002 -0.000003 0.000003 -0.000002 -0.000006 0.000000 0.000000 -0.000006 0.000000 0.000000 -0.000006 0.000000 0.000000 -0.000007 0.000001 -0.000000 -1.956284 23.252501 25.557185 -0.642661 20.673871 37.850122 388.848024 40.014383 -373.261177 -9.479958 7.418350 17.742893 -21.511944 -2.863855 5.102379 -16.456422 -31.619586 -10.828968 -0.000001 0.000000 -0.000000 -1.117352 -20.400091 22.512864 6.671888 -9.934602 63.001016 0.000001 0.000000 0.000000 -13.816708 -17.423242 21.320938 6.561170 -12.925889 68.651099 0.000000 0.000001 0.000000 -14.137722 -15.831735 36.119205 3.239855 -12.615792 81.908298 0.000001 -0.000001 -0.000002 -31.246893 -25.471741 41.789737 6.380849 -7.478723 85.668973 0.000003 0.000003 0.000001 -0.000002 0.000001 -0.000003 -0.000002 -0.000001 -0.000003 -0.000002 0.000001 -0.000003 -0.000000 -0.000001 0.000000 -0.000000 0.000000 0.000001 -0.000000 -0.000001 0.000000 -0.000000 -0.000000 0.000001 -0.000001 -0.000000 -0.000000 -0.000001 -0.000000 -0.000000 -0.000001 -0.000000 -0.000000 -0.000001 -0.000000 -0.000000 -0.000001 -0.000000 -0.000000 -0.000001 -0.000000 -0.000000 -0.000001 -0.000000 -0.000000 0.000000 -0.000000 -0.000000 -0.000000 0.000000 -0.000000 
-3.607570 93.957138 -3.384567 -9.896067 -1.179411 3.337211 -0.000000 -0.000000 -0.000000 -5.262061 9.121466 -4.750576 22.458796 -0.236667 -0.235966 -7.997465 3.603880 3.831343 0.000000 -0.000001 -0.000000 0.000000 -0.000000 0.000000 -11.623591 -13.357021 -17.567673 33.547157 1.159120 0.427407 -11.463459 -14.681720 5.799322 0.000000 -0.000002 -0.000000 -0.000000 -0.000001 -0.000000 6.787738 1.577851 -4.255888 13.499547 3.300433 -3.157293 13.525420 3.199131 -3.135810 6.661953 0.421720 -0.803055 6.661968 0.421723 -0.803058 0.000003 0.000000 0.000000 6.661895 0.421709 -0.803049 6.662096 0.421731 -0.803059 0.000003 0.000000 -0.000001 0.000003 0.000000 0.000000 -1.205560 -20.666494 -24.364070 1.602681 -41.933605 -31.598210 4.490919 -26.563576 0.875683 -9.122638 -9.161226 -3.757648 -20.813320 1.465099 -4.329365 -17.962373 34.591438 10.894317 0.000001 -0.000002 -0.000003 -2.865809 20.397634 -21.773233 6.720256 9.983968 -64.054894 0.000000 -0.000002 0.000000 -14.124277 18.570905 -22.021454 7.166288 13.162433 -72.156085 0.000000 -0.000002 0.000001 -15.699000 16.729316 -37.472200 3.380889 13.021818 -85.361239 0.000001 0.000001 -0.000003 -32.764950 25.881149 -41.122407 7.141881 7.587525 -92.296893 0.000001 -0.000001 -0.000005 -0.000001 -0.000004 0.000003 -0.000001 -0.000004 0.000003 -0.000002 -0.000004 0.000003 0.000001 0.000001 0.000000 0.000001 0.000000 0.000000 0.000001 0.000001 0.000000 0.000001 0.000002 0.000000 -1.348468 22.309544 23.910460 2.405173 20.579674 39.044824 390.735042 42.386091 -375.654476 -9.510669 7.694594 16.288767 -21.155644 -1.499669 4.801377 -18.479174 -32.518531 -11.171455 -0.000002 -0.000001 0.000001 -1.414038 -21.180237 23.136499 7.201689 -10.089876 66.392225 0.000000 0.000000 0.000001 -13.696602 -18.828243 22.659699 7.302380 -13.300203 72.456115 -0.000000 0.000000 0.000001 -14.448087 -16.935570 37.866009 3.852963 -13.239540 86.752138 -0.000001 0.000001 -0.000001 -32.393538 -27.169753 42.613683 7.302969 -7.722401 91.940459 -0.000000 0.000003 -0.000000 -0.000001 -0.000001 -0.000000 -0.000000 0.000000 -0.000001 -0.000001 -0.000001 -0.000000 -0.000001 0.000002 0.000000 -0.000001 0.000002 0.000000 -0.000001 0.000002 0.000000 -0.000001 0.000002 0.000000 -0.000002 -0.000000 0.000001 -0.000002 -0.000000 0.000001 -0.000002 -0.000000 0.000001 -0.000002 -0.000000 0.000001 -0.000002 -0.000000 0.000001 -0.000002 -0.000000 0.000001 -0.000002 -0.000000 0.000001 0.000000 -0.000000 0.000000 -0.000000 -0.000000 -0.000000 
-3.254032 94.048187 -3.315020 -10.190368 -1.383580 3.505377 -0.000001 0.000000 0.000000 -4.163059 9.496675 -5.310291 21.364459 -0.220625 -0.228806 -7.664218 3.421355 4.146737 0.000000 0.000000 0.000000 0.000000 0.000000 -0.000000 -11.275082 -13.240072 -18.113166 33.201850 1.195629 0.431808 -11.127795 -14.499529 6.210719 0.000000 -0.000000 -0.000000 0.000000 -0.000000 -0.000001 6.433320 1.587372 -4.366511 12.785435 3.259336 -3.237265 12.811443 3.157067 -3.215350 6.428063 0.462317 -0.763219 6.428074 0.462315 -0.763212 0.000002 0.000000 0.000000 6.428028 0.462321 -0.763220 6.428160 0.462300 -0.763219 -0.000004 0.000000 -0.000000 0.000002 0.000000 0.000000 -0.606961 -19.983600 -22.751681 3.591668 -39.451132 -31.646940 5.236553 -28.036356 0.947487 -9.048447 -8.981122 -2.662405 -20.797711 0.593391 -4.405160 -19.377566 35.076775 11.340692 -0.000000 -0.000000 -0.000003 -2.843866 21.049279 -21.555208 6.983284 10.133565 -66.089949 0.000000 0.000001 -0.000000 -14.712796 18.654548 -21.681828 7.427312 13.475968 -73.762204 -0.000000 -0.000002 -0.000000 -16.114166 16.583354 -37.151359 3.571200 13.484235 -87.649495 0.000002 -0.000001 0.000005 -34.046799 26.463781 -40.933672 7.318322 7.814269 -94.101333 -0.000001 -0.000002 0.000000 -0.000001 0.000000 0.000001 -0.000001 0.000000 0.000001 -0.000002 0.000000 0.000001 0.000003 0.000000 -0.000000 0.000003 0.000000 -0.000000 0.000003 0.000000 -0.000000 0.000002 0.000000 -0.000000 -0.713644 21.402181 22.136616 4.746090 20.510845 40.324870 391.595673 44.303663 -377.134796 -9.517316 8.185779 14.466670 -20.919486 -0.599294 4.588749 -19.743239 -33.270569 -11.347287 -0.000001 -0.000002 -0.000001 -1.732046 -21.630740 23.353224 7.525098 -10.184733 68.548523 0.000001 0.000000 0.000000 -13.647354 -19.748124 23.428140 7.815836 -13.530620 74.982131 0.000000 -0.000000 -0.000000 -14.832504 -17.503019 38.828061 4.283415 -13.641159 89.897898 0.000000 -0.000001 -0.000000 -33.250587 -28.094764 42.857910 7.902204 -7.871589 96.036988 -0.000001 0.000001 0.000001 -0.000000 -0.000002 -0.000000 -0.000000 -0.000004 -0.000000 -0.000000 -0.000003 -0.000000 -0.000002 0.000002 0.000002 -0.000001 0.000002 0.000002 -0.000002 0.000002 0.000002 -0.000001 0.000002 0.000002 0.000001 -0.000001 0.000000 0.000001 -0.000001 0.000000 0.000001 -0.000001 0.000000 0.000001 -0.000001 0.000000 0.000001 -0.000001 0.000000 0.000001 -0.000001 0.000000 0.000001 -0.000001 0.000000 0.000001 -0.000000 -0.000000 -0.000001 0.000000 0.000000 
-2.919507 94.062302 -3.254180 -10.283044 -1.540780 3.659587 0.000000 0.000000 -0.000000 -3.541567 9.852297 -5.802760 20.729877 -0.207803 -0.224040 -7.516449 3.238549 4.450640 -0.000000 -0.000000 -0.000000 -0.000001 -0.000000 0.000000 -11.291097 -13.066937 -18.638051 33.192418 1.221044 0.435547 -10.958607 -14.344229 6.526552 0.000000 -0.000001 -0.000000 0.000001 0.000002 -0.000001 6.086646 1.588352 -4.475903 12.086296 3.177757 -3.317953 12.112680 3.083689 -3.298397 6.169784 0.498001 -0.717297 6.169819 0.498005 -0.717302 0.000001 -0.000000 -0.000001 6.169888 0.498006 -0.717302 6.169709 0.498001 -0.717294 0.000001 -0.000000 -0.000000 0.000001 -0.000000 -0.000001 0.051151 -19.230215 -20.982116 4.852667 -36.960496 -32.152374 6.739162 -28.723848 1.369275 -8.972972 -8.751114 -1.470435 -20.780038 0.131073 -4.433518 -20.134407 35.301682 11.597060 0.000002 0.000000 -0.000003 -2.943815 21.290198 -21.292070 7.059033 10.202935 -66.897516 0.000000 -0.000000 -0.000000 -15.195115 18.667291 -21.193003 7.557108 13.632465 -74.479361 -0.000001 0.000002 -0.000001 -16.474326 16.391657 -36.743778 3.655778 13.711801 -88.528015 0.000001 -0.000002 0.000003 -34.882582 26.667388 -40.681638 7.415429 7.943040 -95.048571 -0.000000 -0.000003 -0.000002 -0.000001 0.000002 -0.000002 -0.000001 0.000002 -0.000002 -0.000002 0.000002 -0.000002 -0.000002 -0.000001 0.000002 -0.000001 -0.000001 0.000001 -0.000002 -0.000001 0.000002 -0.000003 -0.000000 0.000001 -0.076874 20.530176 20.303504 6.411392 20.396588 41.725192 391.669384 45.382410 -377.619822 -9.496811 8.760638 12.468591 -20.787040 -0.131125 4.453339 -20.394081 -33.885477 -11.409670 -0.000003 0.000000 -0.000000 -1.978517 -21.846042 23.322094 7.606890 -10.233834 69.363494 0.000001 0.000001 0.000001 -13.665493 -20.156375 23.639271 8.028565 -13.635629 76.097917 0.000001 0.000002 0.000000 -15.196099 -17.695961 39.083825 4.414983 -13.872889 91.092498 0.000001 0.000000 0.000006 -33.824319 -28.399950 42.754430 8.070458 -7.958726 97.642690 -0.000000 0.000005 0.000003 0.000000 -0.000001 0.000001 -0.000001 0.000000 0.000000 0.000000 -0.000001 0.000002 0.000001 -0.000001 0.000000 0.000002 0.000000 0.000000 0.000001 -0.000001 0.000000 0.000001 -0.000000 0.000000 -0.000000 -0.000000 -0.000000 -0.000000 -0.000000 -0.000000 -0.000000 -0.000000 -0.000000 -0.000000 -0.000000 -0.000000 -0.000000 -0.000000 -0.000000 -0.000000 -0.000000 -0.000000 -0.000000 -0.000000 -0.000000 -0.000000 -0.000000 -0.000000 0.000000 0.000000 -0.000000 
